grf
version=1
nRows=7
nColumns=37
inDegrees=no
endheader
time	ground_force_1_vx	ground_force_1_vy	ground_force_1_vz	ground_force_1_px	ground_force_1_py	ground_force_1_pz	ground_moment_1_mx	ground_moment_1_my	ground_moment_1_mz	ground_force_2_vx	ground_force_2_vy	ground_force_2_vz	ground_force_2_px	ground_force_2_py	ground_force_2_pz	ground_moment_2_mx	ground_moment_2_my	ground_moment_2_mz	ground_force_3_vx	ground_force_3_vy	ground_force_3_vz	ground_force_3_px	ground_force_3_py	ground_force_3_pz	ground_moment_3_mx	ground_moment_3_my	ground_moment_3_mz	ground_force_4_vx	ground_force_4_vy	ground_force_4_vz	ground_force_4_px	ground_force_4_py	ground_force_4_pz	ground_moment_4_mx	ground_moment_4_my	ground_moment_4_mz
      4.06000000	      0.00000000	     -0.00000000	      0.00000000	      0.00000000	      0.00000000	      0.00000000	      0.00000000	      0.00000000	      0.00000000	      3.43886232	      5.48860931	   -364.66390991	   -323.17708567	  -1098.45598619	      0.00000000	      0.00000000	      0.00000000	   9578.40355462	     -1.05769272	     -4.98166647	   -394.37347412	   -293.34454572	   -740.10290591	      0.00000000	      0.00000000	     -0.00000000	 -10665.09583382	      0.00000000	     -0.00000000	      0.00000000	      0.00000000	      0.00000000	      0.00000000	      0.00000000	      0.00000000	      0.00000000
      4.07000000	      0.00000000	     -0.00000000	      0.00000000	      0.00000000	      0.00000000	      0.00000000	      0.00000000	      0.00000000	      0.00000000	      3.52512431	      4.85368252	   -364.12854004	   -322.79155773	  -1097.76608622	      0.00000000	      0.00000000	      0.00000000	   9574.13115968	     -1.41937299	     -4.98858249	   -393.46871948	   -293.82327673	   -741.42727277	      0.00000000	      0.00000000	     -0.00000000	 -10387.33489775	      0.00000000	     -0.00000000	      0.00000000	      0.00000000	      0.00000000	      0.00000000	      0.00000000	      0.00000000	      0.00000000
      4.08000000	      0.00000000	     -0.00000000	      0.00000000	      0.00000000	      0.00000000	      0.00000000	      0.00000000	      0.00000000	      0.00000000	      3.33945870	      4.54565048	   -363.96603394	   -322.74441717	  -1098.51168157	      0.00000000	      0.00000000	      0.00000000	   9429.46189760	     -1.46520683	     -5.03727995	   -393.83142090	   -293.23839840	   -740.39784801	      0.00000000	     -0.00000000	     -0.00000000	 -10490.77806563	      0.00000000	     -0.00000000	      0.00000000	      0.00000000	      0.00000000	      0.00000000	      0.00000000	      0.00000000	      0.00000000
      4.09000000	      0.00000000	     -0.00000000	      0.00000000	      0.00000000	      0.00000000	      0.00000000	      0.00000000	      0.00000000	      0.00000000	      3.87539053	      4.99761677	   -364.49005127	   -321.74239916	  -1100.16929404	      0.00000000	      0.00000000	      0.00000000	   9578.13337102	     -1.82529878	     -5.34212240	   -394.02291870	   -292.92905656	   -740.48873444	      0.00000000	      0.00000000	     -0.00000000	 -10454.39390754	      0.00000000	     -0.00000000	      0.00000000	      0.00000000	      0.00000000	      0.00000000	      0.00000000	      0.00000000	      0.00000000
      4.10000000	      0.00000000	     -0.00000000	      0.00000000	      0.00000000	      0.00000000	      0.00000000	      0.00000000	      0.00000000	      0.00000000	      3.48293591	      5.34968567	   -361.81442261	   -322.29787258	  -1098.83604802	      0.00000000	      0.00000000	      0.00000000	   9495.38952307	     -2.03789999	     -5.65502578	   -396.09805298	   -292.90562692	   -739.58981323	      0.00000000	      0.00000000	     -0.00000000	 -10527.10984932	      0.00000000	     -0.00000000	      0.00000000	      0.00000000	      0.00000000	      0.00000000	      0.00000000	      0.00000000	      0.00000000
      4.11000000	      0.00000000	     -0.00000000	      0.00000000	      0.00000000	      0.00000000	      0.00000000	      0.00000000	      0.00000000	      0.00000000	      2.66974282	      4.71898651	   -363.04293823	   -321.21259015	  -1099.32754854	      0.00000000	      0.00000000	      0.00000000	   9474.79366334	     -2.04480841	     -5.69119817	   -395.40982056	   -293.11739546	   -740.58998304	      0.00000000	     -0.00000000	     -0.00000000	 -10612.94529912	      0.00000000	     -0.00000000	      0.00000000	      0.00000000	      0.00000000	      0.00000000	      0.00000000	      0.00000000	      0.00000000
      4.12000000	      0.00000000	     -0.00000000	      0.00000000	      0.00000000	      0.00000000	      0.00000000	      0.00000000	      0.00000000	      0.00000000	      2.18775678	      4.59231329	   -363.05236816	   -321.53699794	  -1099.44275610	      0.00000000	      0.00000000	      0.00000000	   9439.28781632	     -2.22373343	     -5.51713638	   -397.69937134	   -292.81311500	   -740.22560162	      0.00000000	      0.00000000	     -0.00000000	 -10604.78198538	      0.00000000	     -0.00000000	      0.00000000	      0.00000000	      0.00000000	      0.00000000	      0.00000000	      0.00000000	      0.00000000
